<svg width="900" height="600" viewBox="0 0 900 600" fill="none" xmlns="http://www.w3.org/2000/svg">
  <defs>
    <linearGradient id="p" x1="0" y1="0" x2="1" y2="1">
      <stop offset="0" stop-color="#38BDF8"/>
      <stop offset="1" stop-color="#2563EB"/>
    </linearGradient>
    <linearGradient id="p2" x1="1" y1="0" x2="0" y2="1">
      <stop offset="0" stop-color="#93C5FD" stop-opacity="0.9"/>
      <stop offset="1" stop-color="#1D4ED8" stop-opacity="0.5"/>
    </linearGradient>
  </defs>
  <rect x="70" y="80" width="760" height="440" rx="32" fill="url(#p2)" opacity="0.25"/>
  <rect x="120" y="130" width="660" height="340" rx="28" fill="white" opacity="0.9"/>
  <rect x="170" y="180" width="360" height="18" rx="9" fill="#DBEAFE"/>
  <rect x="170" y="215" width="520" height="12" rx="6" fill="#E5E7EB"/>
  <rect x="170" y="240" width="480" height="12" rx="6" fill="#E5E7EB"/>
  <g>
    <rect x="170" y="290" width="120" height="150" rx="18" fill="#EFF6FF"/>
    <rect x="310" y="290" width="120" height="150" rx="18" fill="#EFF6FF"/>
    <rect x="450" y="290" width="120" height="150" rx="18" fill="#EFF6FF"/>
    <rect x="590" y="290" width="120" height="150" rx="18" fill="#EFF6FF"/>
  </g>
  <path d="M650 170c45 0 80 35 80 80s-35 80-80 80-80-35-80-80 35-80 80-80z" fill="url(#p)" opacity="0.18"/>
  <path d="M630 236l14 14 36-36" stroke="url(#p)" stroke-width="12" stroke-linecap="round" stroke-linejoin="round"/>
  <path d="M220 420v-70" stroke="#60A5FA" stroke-width="18" stroke-linecap="round"/>
  <path d="M360 420v-100" stroke="#3B82F6" stroke-width="18" stroke-linecap="round"/>
  <path d="M500 420v-55" stroke="#2563EB" stroke-width="18" stroke-linecap="round"/>
  <path d="M640 420v-120" stroke="#1D4ED8" stroke-width="18" stroke-linecap="round"/>
</svg>


