<svg width="900" height="600" viewBox="0 0 900 600" fill="none" xmlns="http://www.w3.org/2000/svg">
  <defs>
    <linearGradient id="s" x1="0" y1="0" x2="1" y2="1">
      <stop offset="0" stop-color="#34D399"/>
      <stop offset="1" stop-color="#10B981"/>
    </linearGradient>
    <linearGradient id="s2" x1="1" y1="0" x2="0" y2="1">
      <stop offset="0" stop-color="#A7F3D0" stop-opacity="0.9"/>
      <stop offset="1" stop-color="#059669" stop-opacity="0.45"/>
    </linearGradient>
  </defs>
  <circle cx="240" cy="200" r="110" fill="url(#s2)" opacity="0.25"/>
  <circle cx="660" cy="220" r="140" fill="url(#s2)" opacity="0.20"/>
  <circle cx="520" cy="430" r="160" fill="url(#s2)" opacity="0.18"/>

  <rect x="150" y="150" width="600" height="320" rx="36" fill="white" opacity="0.92"/>
  <rect x="200" y="200" width="260" height="18" rx="9" fill="#D1FAE5"/>
  <rect x="200" y="235" width="420" height="12" rx="6" fill="#E5E7EB"/>
  <rect x="200" y="260" width="380" height="12" rx="6" fill="#E5E7EB"/>

  <!-- chat bubbles -->
  <rect x="210" y="305" width="300" height="90" rx="22" fill="#ECFDF5"/>
  <rect x="240" y="330" width="180" height="12" rx="6" fill="#BBF7D0"/>
  <rect x="240" y="354" width="220" height="12" rx="6" fill="#BBF7D0"/>

  <rect x="430" y="340" width="260" height="90" rx="22" fill="#F0FDF4"/>
  <rect x="455" y="365" width="170" height="12" rx="6" fill="#A7F3D0"/>
  <rect x="455" y="389" width="210" height="12" rx="6" fill="#A7F3D0"/>

  <!-- simple icons -->
  <circle cx="660" cy="220" r="42" fill="url(#s)" opacity="0.18"/>
  <path d="M650 220h20" stroke="url(#s)" stroke-width="10" stroke-linecap="round"/>
  <path d="M660 210v20" stroke="url(#s)" stroke-width="10" stroke-linecap="round"/>
</svg>


